<?xml version="1.0" standalone="no"?>
<!DOCTYPE svg PUBLIC "-//W3C//DTD SVG 20010904//EN"
 "http://www.w3.org/TR/2001/REC-SVG-20010904/DTD/svg10.dtd">
<svg version="1.0" xmlns="http://www.w3.org/2000/svg"
 width="984.000000pt" height="984.000000pt" viewBox="0 0 984.000000 984.000000"
 preserveAspectRatio="xMidYMid meet">
<metadata>
Created by potrace 1.11, written by Peter Selinger 2001-2013
</metadata>
<g transform="translate(0.000000,984.000000) scale(0.100000,-0.100000)"
fill="#000000" stroke="none">
<path d="M2830 9825 c-133 -19 -170 -26 -279 -54 -711 -186 -1300 -721 -1555
-1416 -25 -70 -65 -193 -71 -224 -2 -9 -8 -37 -14 -62 -34 -151 -55 -335 -55
-504 0 -99 12 -314 19 -325 2 -3 6 -30 10 -60 3 -30 11 -73 17 -95 5 -22 11
-47 13 -55 10 -51 67 -243 84 -285 98 -233 138 -311 228 -450 96 -146 181
-252 301 -373 275 -276 597 -470 957 -574 88 -26 130 -35 225 -53 14 -3 36 -7
49 -10 102 -20 467 -28 601 -12 628 72 1213 416 1578 926 l32 44 -168 116
c-485 339 -598 417 -609 424 -8 5 -22 -8 -40 -35 -15 -24 -30 -45 -33 -48 -3
-3 -21 -25 -41 -50 -187 -233 -463 -389 -755 -426 -77 -10 -284 -11 -353 -1
-219 30 -418 113 -596 246 -60 46 -220 220 -267 293 -120 182 -202 406 -225
613 -13 112 -7 332 10 430 16 88 66 265 86 302 5 10 26 51 46 92 103 213 291
410 501 529 114 64 266 117 404 143 83 15 297 19 375 8 33 -5 71 -11 85 -13
65 -10 195 -49 239 -72 14 -8 30 -14 34 -14 14 0 140 -76 198 -119 80 -61 199
-182 265 -271 36 -48 63 -76 70 -72 6 4 182 126 392 272 328 229 378 267 370
283 -20 38 -177 225 -253 302 -354 354 -778 565 -1310 650 -83 13 -469 13
-565 0z"/>
<path d="M5624 9755 c-2 -5 -3 -1002 -2 -2215 l3 -2205 1300 0 c715 -1 1307 1
1317 3 15 3 16 42 15 440 l-2 437 -795 2 c-437 1 -802 2 -811 2 -15 1 -16 146
-17 1769 -1 972 -1 1769 -1 1772 -2 10 -1003 5 -1007 -5z"/>
<path d="M2416 4421 c-6 -9 -132 -351 -168 -451 -16 -47 -35 -98 -42 -115 -8
-16 -44 -113 -81 -215 -36 -102 -77 -212 -90 -245 -13 -33 -55 -145 -93 -250
-60 -163 -156 -422 -395 -1065 -27 -74 -56 -153 -64 -175 -7 -22 -17 -49 -22
-60 -5 -11 -30 -78 -56 -150 -25 -71 -49 -137 -52 -145 -4 -8 -7 -17 -8 -20
-1 -3 -7 -18 -13 -33 -7 -16 -12 -31 -12 -34 0 -6 -47 -132 -70 -188 -5 -11
-40 -108 -80 -215 -39 -107 -74 -202 -77 -210 -3 -8 -7 -19 -9 -25 -2 -5 -35
-95 -74 -200 -54 -146 -183 -493 -228 -613 -3 -10 106 -12 538 -10 l543 3 38
120 c20 66 90 284 154 485 65 201 120 374 123 385 3 11 10 23 16 27 6 4 356 7
778 7 l767 0 91 -282 c51 -155 121 -372 157 -482 36 -110 70 -215 76 -233 l11
-32 538 0 537 0 -33 92 c-19 51 -89 242 -156 423 -67 182 -139 377 -161 435
-21 58 -49 134 -62 170 -28 75 -187 507 -289 785 -38 105 -74 201 -80 215 -5
14 -27 72 -48 130 -72 200 -350 955 -360 975 -5 11 -23 61 -41 110 -17 50 -37
106 -44 125 -49 132 -265 720 -307 831 l-50 136 -549 0 c-302 0 -551 -2 -553
-6z m629 -1238 c48 -148 91 -281 96 -298 5 -16 24 -77 43 -135 140 -429 266
-827 266 -837 0 -6 -174 -10 -490 -10 -269 0 -490 3 -490 7 0 5 18 66 41 137
55 173 106 334 172 543 30 96 82 261 116 365 33 105 81 259 108 343 26 83 49
152 50 152 1 0 41 -120 88 -267z"/>
<path d="M4605 4420 c-2 -4 15 -34 39 -66 24 -32 110 -153 191 -269 82 -115
177 -249 212 -297 35 -48 63 -92 63 -97 0 -5 4 -11 8 -13 5 -1 99 -131 210
-288 111 -157 208 -294 216 -305 43 -59 290 -408 340 -480 19 -27 124 -175
233 -329 l198 -278 0 -999 0 -999 510 0 510 0 -1 984 c-1 711 2 991 10 1005
10 19 407 583 527 749 30 42 80 113 111 157 30 44 222 316 426 605 466 660
526 744 585 828 27 37 53 74 58 83 8 15 -39 17 -592 16 l-601 0 -62 -96 c-50
-77 -296 -464 -838 -1313 -15 -24 -31 -50 -35 -58 -4 -8 -12 -20 -17 -26 -6
-7 -28 -40 -49 -74 -21 -34 -40 -60 -41 -59 -14 17 -126 202 -126 209 0 4 -4
10 -8 12 -4 2 -61 89 -126 193 -166 269 -502 806 -519 830 -7 11 -64 102 -126
201 l-113 181 -594 0 c-327 0 -597 -3 -599 -7z"/>
</g>
</svg>
